<svg width="15" height="15" viewBox="0 0 15 15" fill="none" xmlns="http://www.w3.org/2000/svg">
<path d="M13.4985 6.8735C13.4985 9.1425 12.396 10.547 10.601 10.547C9.67147 10.547 9.00797 10.1435 8.81347 9.4595H8.67647C8.38097 10.187 7.81897 10.5545 6.98997 10.5545C5.49097 10.5545 4.49647 9.3445 4.49647 7.515C4.49647 5.7645 5.45497 4.5835 6.88197 4.5835C7.66047 4.5835 8.27297 4.958 8.56147 5.6065H8.69847V4.7565H10.356V8.4155C10.356 8.927 10.5865 9.2295 10.976 9.2295C11.61 9.2295 12.014 8.387 12.014 7.047C12.014 4.4395 10.306 2.7685 7.64647 2.7685C4.87147 2.7685 2.98347 4.7135 2.98347 7.544C2.98347 10.4105 4.88597 12.2045 7.94197 12.2045C8.60497 12.2045 9.28947 12.118 9.66447 12.003V13.285C9.14547 13.421 8.46797 13.5 7.78297 13.5C4.01397 13.5 1.49847 11.1015 1.49847 7.507C1.49847 3.956 4.02097 1.5 7.66797 1.5C11.142 1.5 13.4985 3.6755 13.4985 6.8735ZM6.39197 7.565C6.39197 8.5015 6.78097 9.063 7.43697 9.063C8.09997 9.063 8.50347 8.494 8.50347 7.565C8.50347 6.636 8.09247 6.067 7.43697 6.067C6.78147 6.067 6.39197 6.6285 6.39197 7.565Z" fill="black"/>
</svg>
