<svg width="15" height="15" viewBox="0 0 15 15" fill="none" xmlns="http://www.w3.org/2000/svg">
<g clip-path="url(#clip0_664_1150)">
<path d="M7.5 1.5C4.1915 1.5 1.5 4.1915 1.5 7.5C1.5 10.8085 4.1915 13.5 7.5 13.5C8.019 13.5 8.5195 13.4272 9 13.3027V10.6807C8.606 11.8022 8.0365 12.5 7.5 12.5C6.861 12.5 6.17247 11.5195 5.79297 10H9V9H5.60059C5.53609 8.5305 5.5 8.0275 5.5 7.5C5.5 6.96797 5.54587 6.47291 5.61133 6H9.38867C9.45413 6.47291 9.5 6.96797 9.5 7.5C9.5 7.637 9.49083 7.76737 9.48633 7.90137C9.75383 7.65437 10.108 7.5 10.5 7.5C10.5 6.97697 10.4665 6.47709 10.4092 6H12.2686C12.418 6.47374 12.5 6.97745 12.5 7.5C12.5 7.8475 12.4606 8.1852 12.3926 8.5127L13.2676 9.13672C13.4156 8.61572 13.5 8.068 13.5 7.5C13.5 4.1915 10.8085 1.5 7.5 1.5ZM7.5 2.5C8.13742 2.5 8.81729 3.48711 9.19727 5H5.80273C6.18271 3.48711 6.86258 2.5 7.5 2.5ZM5.53125 2.90527C5.1993 3.46902 4.93529 4.18245 4.75684 5H3.17285C3.71118 4.07263 4.53851 3.33237 5.53125 2.90527ZM9.46875 2.90527C10.4615 3.33237 11.2888 4.07263 11.8271 5H10.2432C10.0647 4.18245 9.8007 3.46902 9.46875 2.90527ZM2.73145 6H4.59082C4.53347 6.47709 4.5 6.97697 4.5 7.5C4.5 8.023 4.53382 8.5225 4.59082 9H2.73047C2.58147 8.526 2.5 8.0225 2.5 7.5C2.5 6.97745 2.582 6.47374 2.73145 6ZM10.5078 8.49414C10.4367 8.49262 10.3661 8.50629 10.3007 8.53421C10.2354 8.56214 10.1767 8.60369 10.1286 8.65609C10.0806 8.70849 10.0442 8.77054 10.022 8.8381C9.99987 8.90565 9.99235 8.97716 10 9.04785V13.5C10 13.776 10.224 14 10.5 14C10.644 14 10.7713 13.9373 10.8623 13.8398L10.8652 13.8408L11.8057 12.7295L12.8027 14.7236C12.8321 14.7824 12.8727 14.8348 12.9224 14.8778C12.972 14.9208 13.0296 14.9537 13.0919 14.9745C13.1542 14.9952 13.22 15.0035 13.2855 14.9989C13.351 14.9942 13.4149 14.9767 13.4737 14.9473C13.5324 14.918 13.5848 14.8773 13.6278 14.8277C13.6709 14.7781 13.7037 14.7205 13.7244 14.6582C13.7452 14.5959 13.7535 14.5301 13.7488 14.4646C13.7442 14.3991 13.7266 14.3351 13.6973 14.2764L12.6797 12.2422L14.1377 11.9805L14.1387 11.9717C14.3457 11.9112 14.5 11.727 14.5 11.5C14.5 11.3255 14.4046 11.1793 14.2686 11.0898L14.2705 11.0801L10.8506 8.64062C10.7595 8.54944 10.6367 8.49697 10.5078 8.49414V8.49414ZM3.17676 10H4.75586C4.93386 10.819 5.19827 11.5307 5.53027 12.0947C4.53877 11.6677 3.71526 10.927 3.17676 10Z" fill="black"/>
</g>
<defs>
<clipPath id="clip0_664_1150">
<rect width="15" height="15" fill="white"/>
</clipPath>
</defs>
</svg>
