<svg width="25" height="25" viewBox="0 0 25 25" fill="none" xmlns="http://www.w3.org/2000/svg">
<path d="M7.29167 20.8333H11.4583C11.4583 21.9792 10.5208 22.9167 9.375 22.9167C8.22917 22.9167 7.29167 21.9792 7.29167 20.8333ZM5.20833 19.7917H13.5417V17.7083H5.20833V19.7917ZM17.1875 9.89583C17.1875 13.875 14.4167 16 13.2604 16.6667H5.48958C4.33333 16 1.5625 13.875 1.5625 9.89583C1.5625 5.58333 5.0625 2.08333 9.375 2.08333C13.6875 2.08333 17.1875 5.58333 17.1875 9.89583ZM22.2604 7.67708L20.8333 8.33333L22.2604 8.98958L22.9167 10.4167L23.5729 8.98958L25 8.33333L23.5729 7.67708L22.9167 6.25L22.2604 7.67708ZM19.7917 6.25L20.7708 4.10417L22.9167 3.125L20.7708 2.14583L19.7917 0L18.8125 2.14583L16.6667 3.125L18.8125 4.10417L19.7917 6.25Z" fill="#F9F9F9"/>
</svg>
