<svg width="15" height="15" viewBox="0 0 15 15" fill="none" xmlns="http://www.w3.org/2000/svg">
<path d="M12 2H3C2.4475 2 2 2.4475 2 3V12C2 12.5525 2.4475 13 3 13H12C12.5525 13 13 12.5525 13 12V3C13 2.4475 12.5525 2 12 2ZM5.477 11H4.002V6.254H5.477V11ZM4.7245 5.5755C4.249 5.5755 3.8645 5.19 3.8645 4.7155C3.8645 4.241 4.2495 3.856 4.7245 3.856C5.1985 3.856 5.584 4.2415 5.584 4.7155C5.584 5.19 5.1985 5.5755 4.7245 5.5755ZM11.002 11H9.528V8.692C9.528 8.1415 9.518 7.4335 8.7615 7.4335C7.994 7.4335 7.876 8.033 7.876 8.652V11H6.402V6.254H7.817V6.9025H7.837C8.034 6.5295 8.515 6.136 9.2325 6.136C10.726 6.136 11.002 7.119 11.002 8.397V11V11Z" fill="black"/>
</svg>
