<svg width="15" height="15" viewBox="0 0 15 15" fill="none" xmlns="http://www.w3.org/2000/svg">
<path d="M7.5 1C4.4625 1 2 3.4625 2 6.5C2 10.117 5.576 11.8485 6.024 12.2515C6.4815 12.663 6.8595 13.5855 7.012 14.1085C7.086 14.3625 7.294 14.491 7.5 14.4965C7.7065 14.4905 7.914 14.362 7.988 14.1085C8.1405 13.5855 8.5185 12.6635 8.976 12.2515C9.424 11.8485 13 10.117 13 6.5C13 3.4625 10.5375 1 7.5 1ZM7.5 8C6.6715 8 6 7.3285 6 6.5C6 5.6715 6.6715 5 7.5 5C8.3285 5 9 5.6715 9 6.5C9 7.3285 8.3285 8 7.5 8Z" fill="black"/>
</svg>
