<svg width="15" height="15" viewBox="0 0 15 15" fill="none" xmlns="http://www.w3.org/2000/svg">
<path d="M10.6125 8.94449C10.4095 8.82549 10.16 8.82799 9.958 8.94799L8.935 9.55749C8.706 9.69399 8.42 9.67799 8.21 9.51399C7.847 9.23049 7.2625 8.75349 6.754 8.24499C6.2455 7.73649 5.7685 7.15199 5.485 6.78899C5.321 6.57899 5.305 6.29299 5.4415 6.06399L6.051 5.04099C6.1715 4.83899 6.1725 4.58749 6.0535 4.38449L4.5525 1.82049C4.407 1.57249 4.118 1.45049 3.8385 1.51899C3.567 1.58499 3.2145 1.74599 2.845 2.11599C1.688 3.27299 1.0735 5.22449 5.4245 9.57549C9.7755 13.9265 11.7265 13.3125 12.884 12.155C13.2545 11.7845 13.415 11.4315 13.4815 11.1595C13.549 10.8805 13.429 10.5935 13.1815 10.4485C12.5635 10.087 11.2305 9.30649 10.6125 8.94449Z" fill="black"/>
</svg>
